<svg xmlns="http://www.w3.org/2000/svg" width="598" height="549" fill="none"><path fill="#363430" d="M576.438 383.792c-21.461-19.71-47.001-30.98-76.623-41.099v-87.759l3.217-14.722-.432-50.162c-.144-15.778-11.33-26.136-23.189-34.912-30.101-18.463-62.027-30.98-96.594-42.202-11.234-19.23-28.661-32.322-52.33-35.583 8.978-32.466 34.807-55.39 68.365-61.671 3.313-.576 6.769-6.618 6.193-9.831-.528-2.878-6.289-6.378-9.889-5.803-40.952 7.098-70.334 36.543-81.328 76.058-44.792-2.493-78.254 31.315-74.798 74.092L82.473 228.271c-12.578 6.33-17.811 22.539-16.611 35.151-5.617 13.188 6.241 21.676 7.441 31.939 2.16 18.319 1.152 37.31 1.249 56.3-22.757 9.687-43.593 21.005-59.628 39.612-18.58 21.58-20.356 50.881-2.256 73.468 32.55 40.619 103.843 62.727 154.445 72.222 90.209 16.881 181.522 15.826 271.443-2.158 49.305-9.879 109.316-29.733 143.595-66.659 23.908-25.752 19.779-60.952-5.713-84.354M265.339 112.84c9.026-12.66 26.693-21.436 44.457-20.62-.145 8.152-5.329 22.635 5.04 24.121 2.737.384 8.066-3.692 8.546-6.522l2.593-16.449c18.339.816 32.886 12.037 40.135 24.794 10.034 17.647 9.218 36.59-.288 53.279-11.474 20.045-32.838 30.212-55.642 28.725-20.692-1.39-41.24-13.715-50.17-34.576-7.633-17.744-6.241-36.494 5.329-52.752M87.034 244.144l156.029-77.401c8.642 24.026 26.933 39.228 46.377 45.702 25.204 8.392 49.593 4.7 69.709-9.687 23.14-16.545 33.318-41.818 29.957-70.687 30.054 11.03 55.739 22.156 81.376 37.166 7.681 4.508 16.035 14.051 16.083 22.875l.336 45.894c0 9.303-7.682 18.175-14.931 21.004-23.525 9.016-28.565-24.841-59.051-13.715-12.242 4.46-18.292 16.305-18.34 30.644-.048 11.365 1.393 39.372-15.602 39.947-31.494 1.055-3.649-51.505-32.455-61.479-24.148-8.345-29.621 22.875-46.76 25.416-18.34 2.686-21.364-22.395-43.977-15.681-26.837 7.912-6.721 55.149-36.054 53.566-4.753-.239-13.395-6.665-13.923-12.516-1.776-20.765-15.363-35.631-38.215-35.008-15.027.384-29.286 9.112-42.92 16.161-12.579 6.57-29.622 7.961-38.743-4.364-7.106-9.687-5.906-27.383 1.104-37.837m3.697 146.649 392.761-44.407.24 53.231-393.001 45.415zm-.24-85.553c13.874 2.158 27.125 3.261 39.223-3.069l25.589-13.284c9.265-4.844 28.757-4.988 31.253 9.207 3.313 18.991 12.771 33.33 31.014 35.2 16.419 1.679 33.222-8.968 36.295-27.239 2.304-13.428.864-23.738 6.721-26.759 8.786-4.556 16.179 19.518 39.896 16.544 28.181-3.596 28.421-30.308 42.872-26.183 1.44 9.783 1.968 19.182 2.16 28.821.384 18.463 14.211 32.514 31.254 33.186 16.947.671 32.646-12.661 33.318-31.172l1.008-29.733c.145-3.692 4.369-9.639 7.394-11.029 17.571-8.297 24.148 30.164 65.196 11.173v58.842L90.971 374.009zm479.657 151.157c-12.818 14.147-28.949 25.225-46.953 33.473-103.987 47.765-247.63 51.409-358.435 29.781-42.104-8.2-109.172-29.157-137.737-63.206-13.539-16.928-13.779-37.502-.24-53.567 12.53-14.866 28.805-25.321 47.576-32.61l.24 76.922c0 9.783 7.298 15.489 17.716 14.482l398.282-46.325c4.225-.48 8.93-7.29 8.978-10.598l.336-44.456c25.829 8.105 49.593 19.854 68.317 38.749 16.563 16.736 17.859 39.803 1.92 57.355"/></svg>