<svg xmlns="http://www.w3.org/2000/svg" width="577" height="572" fill="none"><path fill="#363430" d="M574.963 268.641c-2.062-13.092-20.239-19.902-30.742-25.129-2.637-28.484-24.219-47.474-52.803-47.426-5.515-17.983-18.177-33.521-34.003-39.275-43.5-15.921-58.031 16.209-66.376 3.549l21.102-28.773c37.121 9.255 71.939-2.302 93.089-33.616 9.976-14.77-22.013-21.052-31.125-24.457C485.711 51.167 486.238 24.313 476.407 0c-27.193-.575-59.23 23.066-64.746 49.729-9.927-8.248-18.272-14.77-30.502-16.544-19.327 30.93-12.613 66.992 13.477 92.456-6.715 12.036-10.503 18.222-20.143 31.841 4.364-34.671-22.637-34.527-38.464-44.789-24.219-15.777-42.348-37.692-75.68-34.767-27.241 2.35-55.537 12.948-71.795 39.418-41.581-7.001-79.181 18.079-88.725 57.738-32.516 5.514-55.201 29.827-58.654 61.813-14.676 7.481-32.517 16.017-39.567 31.266C-11.725 384.067 59.16 482.949 165.39 523.47c6.81 13.763-.48 29.109 22.349 35.247 65.608 17.599 135.293 17.743 201.909.048 23.021-6.091 17.313-21.532 23.596-35.87 104.504-40.042 177.018-140.555 161.719-254.254M432.044 41.529c7.002-12.133 19.999-19.374 33.188-23.258 5.324 18.846 3.693 38.987-10.407 53.852l-22.973 11.27c-9.256-13.092-7.721-28.293.192-41.864m.384 55.53 20.239-5.85c10.982-3.165 22.924-1.822 33.955 3.405-15.923 20.812-41.869 27.526-66.903 21.484zm-42.492-44.261c16.162 8.967 22.493 23.402 24.315 42.344l-10.263 16.352c-16.067-15.585-23.404-37.74-14.052-58.696M57.961 249.986c-2.926-32.657 20.478-60.374 54.913-58.888 4.46-36.925 34.963-63.923 71.843-57.929 3.07.48 8.969 1.295 11.367.864 5.947-1.103 17.697-41.865 71.555-38.843 24.268 1.342 45.322 16.256 58.415 38.555 8.489-1.391 17.841-2.158 23.596 1.726 5.467 3.741 8.776 12.133 9.879 19.47l2.207 14.626c29.591 4.124 30.118 20.908 41.82 10.79 12.518-10.838 28.392-15.01 45.37-8.92 11.606 4.124 24.651 15.058 26.617 31.698 2.302 19.038 21.198-.144 42.013 19.134 8.489 7.816 8.68 20.188 9.64 32.513 8.488 3.644 21.581 7.097 27.193 15.489 20.095 30.115-90.74 52.75-107.19 55.771-107.045 19.565-216.776 19.23-323.63-1.151-20.383-3.884-95.44-23.21-101.194-41.241-5.66-17.743 16.977-29.827 35.586-33.664m327.323 293.289c-64.506 16.593-129.203 16.209-192.749-.335-4.988-1.295-7.29-6.57-5.947-11.557 67.671 18.366 137.691 19.613 205.554-.624 1.774 5.563-1.103 11.03-6.858 12.516m-17.505-23.353c-107.669 25.703-236.584-1.727-306.078-92.6-26.761-35.822-43.26-76.536-44.698-123.291 34.195 21.388 78.126 33.472 118.22 40.33 93.521 16.112 187.378 16.975 281.474 4.363 33.332-5.227 63.45-12.084 95.152-21.435 16.21-6.282 29.926-12.804 48.439-22.491-3.885 109.096-89.445 190.571-192.509 215.124"/><path fill="#363430" d="M456.695 262.406c-.383 2.734-9.64 6.138-11.366 3.261-14.964-25.08-29.495-4.891-31.27-16.209-.383-2.397 2.398-7.145 4.604-8.44 13.333-7.528 27.001-1.534 35.826 10.455 1.727 2.397 2.638 8.2 2.206 10.933M157.908 250.849c-2.254 13.811-19.088-5.371-28.536 11.845-1.439 2.685-7.818 5.275-10.263 4.076-3.262-1.63-4.988-8.152-3.118-11.509 7.914-14.194 23.932-19.374 37.696-12.9 2.015.959 4.556 6.33 4.221 8.488M335.262 234.736c-.144 3.118-8.249 5.467-10.455 3.07-12.613-13.715-15.97-1.343-27.769-3.022-2.35-.335-2.973-8.296-1.103-10.789 7.866-10.358 25.227-11.509 35.49.479 1.871 2.158 3.933 7.433 3.837 10.262M229.416 186.878c-2.015 2.158-5.899 4.124-7.962 3.405-2.11-.719-5.323-7.001-4.556-9.351 3.261-10.358 19.616-20.045 30.934-14.338 2.206 1.103 5.419 4.699 6.331 6.569 5.899 11.941-14.196 2.398-24.747 13.715M242.413 281.636c0 4.892-3.981 8.92-8.872 8.92-4.892 0-8.921-4.028-8.921-8.92 0-4.891 3.981-8.919 8.921-8.919s8.872 3.98 8.872 8.919M373.774 283.698c0 4.844-3.885 8.728-8.681 8.728s-8.729-3.884-8.729-8.728 3.885-8.679 8.729-8.679a8.647 8.647 0 0 1 8.681 8.679M204.717 227.687c0 4.412-3.597 8.009-8.057 8.009s-8.057-3.597-8.057-8.009 3.596-8.056 8.057-8.056a8.043 8.043 0 0 1 8.057 8.056"/></svg>