<svg width="769" height="411" viewBox="0 0 769 411" fill="none" xmlns="http://www.w3.org/2000/svg">
<path d="M735.713 135.113C706.816 104.645 670.766 84.1097 630.924 68.8039C628.668 18.9523 584.794 -1.00753 540.103 5.90059e-05C449.715 9.83604 448.034 32.8666 346.893 24.71C299.323 20.9195 252.232 26.4852 209.222 47.5006C141.538 63.766 65.8386 91.1148 22.4443 149.027C-6.1652 187.124 -7.55727 236.591 19.0361 276.415C58.4462 335.575 139.186 371.176 208.262 388.689C323.468 417.861 441.65 418.389 555.752 390.129C624.108 373.191 698.463 341.333 743.01 286.251C780.596 239.71 776.756 178.247 735.713 135.065V135.113ZM250.744 49.18C335.181 25.6696 372.047 57.8164 466.515 31.4752C504.389 20.9195 545.864 8.87643 582.922 24.4221C609.899 35.6975 621.756 64.9655 609.947 91.5946C582.009 154.593 513.366 202.189 448.322 221.813C378.335 242.925 304.939 246.235 233.799 230.258C198.181 222.245 137.026 196.384 136.114 154.785C135.73 137.272 144.947 121.486 155.987 108.052C180.229 78.6879 213.734 59.4957 250.744 49.18ZM732.881 271.809C692.703 326.027 615.707 358.51 550.52 374.439C439.25 401.596 323.42 400.588 212.294 372.712C148.739 356.782 68.4787 321.9 32.2368 265.907C-5.30115 207.947 28.4446 152.098 79.2313 117.744C104.289 100.807 131.89 88.284 160.884 78.8798C107.553 134.729 121.185 147.156 118.977 216.775C116.769 286.107 182.101 317.054 240.712 328.714C310.507 342.628 381.167 336.822 449.619 317.15C486.004 306.691 518.694 292.92 549.32 270.418C552.632 268.018 549.992 257.991 546.248 253.72C463.923 312.256 337.677 331.976 240.136 311.585C213.158 305.923 188.053 297.047 166.404 280.733C134.482 256.695 133.378 230.786 135.346 193.121C155.891 223.061 205.91 242.397 241.816 249.018C319.82 263.364 400.416 258.039 474.772 230.162C533.287 208.187 580.473 169.275 614.603 118.991L615.275 150.467C615.611 165.724 610.763 183.717 600.874 194.081C575.241 178.247 572.169 228.914 564.345 240.766C566.601 254.296 570.873 266.627 576.537 281.069C562.904 293.976 547.112 303.62 529.687 311.345C526.807 312.64 524.31 319.645 525.511 322.428C531.895 337.734 579.657 300.933 588.346 292.872C617.627 291.817 615.659 307.41 631.02 304.867C635.004 304.196 639.372 295.319 643.501 293.832C655.357 289.562 682.863 284.332 683.631 272.289C683.823 269.554 680.847 263.988 678.59 262.309L665.198 252.569C691.359 236.831 692.127 177.336 680.943 178.679C655.837 181.798 632.268 188.083 619.019 210.586L614.651 204.78C611.483 200.558 630.828 187.987 631.02 157.376L631.5 87.2764C669.23 101.958 703.936 122.59 729.185 153.201C758.755 189.091 760.531 234.528 732.881 271.809ZM634.476 260.725C645.037 262.165 653.725 262.645 663.038 270.513C644.509 283.756 635.1 271.089 626.652 286.299L602.026 278.526L638.604 242.109C640.092 240.67 640.765 234.72 639.42 233.377C626.652 220.662 602.843 262.117 589.882 269.074L586.954 242.973C585.658 231.505 584.218 216.104 594.298 208.235C605.771 212.889 608.651 226.132 612.155 238.75C637.02 234.672 621.516 202.717 671.198 197.008C674.078 257.943 627.324 237.407 634.476 260.725Z" fill="#363430"/>
<path d="M347.037 61.367C345.357 59.2558 337.773 57.9604 335.324 59.8316L271.913 108.772C255.736 100.231 239.847 102.342 224.487 108.34L211.478 99.5594C208.502 97.5442 199.957 100.471 199.381 103.542C198.949 106.133 200.629 111.89 202.837 113.378L212.966 120.191C208.118 130.891 209.702 138.663 216.902 148.163L194.869 166.636C192.661 168.507 191.125 174.793 192.613 177.096C194.101 179.399 201.781 180.406 203.942 178.679L230.775 157.28C243.976 159.391 260.68 156.656 271.913 154.737C274.745 154.209 281.61 158.815 284.106 157.76C286.65 156.704 289.674 152.146 290.73 149.171C291.642 146.676 284.586 142.214 284.49 139.479L283.77 119.807L345.261 72.2585C347.901 70.1954 348.765 63.4781 347.037 61.367ZM268.505 130.267C267.833 132.762 265.961 136.312 263.321 141.206C251.032 144.085 227.511 143.893 226.407 131.946C225.399 121.007 247.144 112.754 263.273 122.254C265.385 123.502 269.033 128.156 268.505 130.267Z" fill="#363430"/>
<path d="M477.076 60.0716L285.402 212.121L275.178 199.215L466.852 47.2129L477.076 60.0716Z" fill="#363430"/>
<path d="M569.817 54.131L388.482 201.22L398.767 213.887L580.101 66.7981L569.817 54.131Z" fill="#363430"/>
</svg>
