<svg xmlns="http://www.w3.org/2000/svg" width="610" height="554" fill="none"><path fill="#363430" d="M586.322 185.88c-6.96-8.971-5.904-22.404-20.159-27.489-15.552-5.517-33.023-6.525-49.102 3.454-5.328-11.418-12.191-19.525-22.703-26.578 9.312-26.001-.912-54.69-25.294-66.3-24.095-11.465-53.518-5.18-68.733 18.662-25.534-14.248-48.861-.48-65.66 22.788l4.559-36.748c-9.743-28.976-29.806-40.73-58.748-32.814-7.584-32.19-39.31-47.686-69.645-37.995-28.942 9.259-43.39 40.634-33.838 71.097-30.334 5.613-44.83 34.301-36.19 62.318-13.199-6.237-25.199-5.949-37.246.528-10.896-25.81-36.046-39.099-62.54-33.342-19.488 4.174-33.551 18.374-38.447 35.117-5.808 19.717 1.392 37.131 13.92 52.051C4.88 200.799-2.273 214.232.655 230.063c2.256 11.994 11.328 22.836 23.423 29.072L9.632 280.388c-14.016 149.486 111.642 260.113 254.05 272.106 51.07 4.27 100.603-.239 148.553-17.702 111.114-40.394 188.006-141.858 171.399-260.545 18.143-9.595 25.246-27.681 26.302-45.047 1.2-20.053-13.007-29.6-23.614-43.32m-222.565-82.707c25.967-15.88 39.07 16.791 44.35 3.934 8.639-21.252 28.03-31.95 49.005-24.707 19.199 6.669 30.911 29.312 20.591 48.598-12.191 22.739 13.247 9.403 21.887 31.758 7.44 19.334-5.808 33.87-25.535 44.52l6.816 13.097c8.784 16.934-3.312 36.22-20.495 42.504-1.776-30.703-13.343-57.376-41.182-76.71l16.319-37.899c1.248-2.878-1.248-9.355-3.695-10.65-2.4-1.343-8.784 1.151-10.032 3.79l-16.991 35.453c-18.767-7.005-36.286-11.034-56.541-12.378 16.415-28.736-14.351-43.128 15.503-61.31M259.123 354.411c.192 2.351-5.712 3.742-6.384 2.303l-3.6-7.58c-2.544-5.277-13.055-10.362-20.351-12.953-2.88-1.055-10.319 3.646-10.463 6.62s2.88 6.141 9.935 12.522l-48.429-5.517 3.312-9.307c.72-1.967-4.896-7.58-7.2-7.1l-35.47 7.484c-7.2 1.535-18.959-3.886-26.879-5.709-2.4-42.025 24.527-77.718 62.493-90.862 39.646-13.769 86.923 1.775 106.842 38.474-16.079 18.902-25.582 49.701-23.806 71.625m22.606-37.227c3.312-12.522 11.28-23.556 22.367-32.047 18.047-17.27 45.406-26.625 72.284-21.012 37.583 7.867 62.877 42.888 63.501 80.452-11.087 2.494-21.455 5.181-32.398 5.564l-36.526 4.75-2.016.24c-4.032.479-7.968.767-12.095.911h-.576l-26.927 2.015-20.831-.288-31.822.288c-2.016-14.776 0-28.448 5.039-40.873m147.497-40.97c25.87 5.997 42.286 31.375 45.597 59.535-5.519 3.694-12.671 5.134-19.391 5.517.096-25.042-10.799-43.848-26.206-65.052m-12.048-70.521c16.895 14.584 27.791 36.22 24.959 56.849l-33.214-4.27c-8.928-1.199-50.782-35.165-113.13 11.897-10.272-13.912-21.215-24.466-36.334-34.061 26.446-58.144 109.722-71.912 157.719-30.415M161.016 101.446c11.471-14.488 25.486-7.484 32.734-13 6.096-4.702-2.496-15.352-3.312-32.24-1.056-21.587 15.647-38.186 35.422-39.098 20.831-1.007 39.07 13.433 39.358 36.268.048 2.303 2.304 7.58 4.176 8.828 7.824 5.325 15.455-11.85 34.654-6.285 6.672 1.967 13.968 9.163 16.655 17.462 7.632 23.7-14.543 41.45-6.479 44.712l15.887 6.38c11.231 10.602 9.695 36.652-5.76 42.169-21.503 7.676-40.846 15.304-57.597 31.087L250.243 112c-.624-3.07-6-6.093-8.351-6.572s-8.016 5.709-7.392 9.067l17.999 96.379c.96 5.037-6.192 15.303-8.304 17.894a183 183 0 0 0-5.903-1.583c-2.4-.624-4.752-1.199-7.104-1.631-1.728-.384-3.504-.72-5.232-1.008a179 179 0 0 0-8.639-1.247c-3.792-.432-7.536-.767-11.424-.911-4.511-.24-9.167-.336-13.967-.336 1.488-11.418-2.064-23.363-12.575-28.641l-17.663-8.875c-.72-20.101 17.039-17.558 17.183-27.345.144-10.122-17.711-9.834-22.895-29.935-2.304-8.971-.384-18.998 5.04-25.81M17.647 228.144c-5.327-24.178 18.047-25.474 21.311-33.341 1.056-2.591-2.208-9.019-4.656-10.698-16.127-11.274-22.366-32.766-11.807-49.221 8.592-13.433 24.479-18.422 39.118-15.064 30.286 6.956 27.119 38.523 35.566 38.907 9.216.383 13.775-13.385 29.423-10.507 6.287 1.152 14.063 7.628 16.463 14.968 5.375 16.215-4.992 30.607.912 33.63 8.687 4.365 17.471.048 26.638 9.259 4.368 4.365 6.192 14.104 4.704 20.196-17.231 6.621-32.11 14.632-47.229 28.113l-28.127-46.055c-1.92-3.07-8.544-5.421-11.663-3.982-2.832 1.344-4.896 8.828-3.216 11.61l31.726 51.956c-13.871 19.333-18.767 39.098-20.35 62.461-20.88-7.052-77.805-23.843-67.63-49.461 7.632-19.189 23.088-14.056 21.888-26.241-1.152-11.13-27.935-3.214-33.07-26.53m342.126 303.578c-46.413 8.683-91.483 6.908-137.656-2.639-98.923-22.835-190.742-105.11-196.358-211.899 25.39 15.687 50.781 25.522 80.156 34.301 125.945 31.95 258.37 32.382 384.268-.384 28.99-7.532 53.469-18.23 79.003-33.438-8.735 114.417-102.09 193.91-209.413 214.059m232.164-292.688c-4.608 20.581-24.959 23.603-29.038 28.737-5.136 6.476 7.439 13.432 6.287 22.259-2.4 18.662-57.021 37.468-78.523 43.656-2.016-3.502-4.656-14.536-2.352-18.421 15.119-25.474 30.862-47.206 49.293-70.474 1.68-2.159.72-9.259-1.536-10.794-2.256-1.583-9.119-1.007-10.847 1.152-17.039 20.964-31.487 41.305-45.742 63.229l-20.687-26.865c13.967-.816 26.255-4.606 32.83-14.153 8.304-12.041 6.768-23.267 4.944-37.611-.864-7.34 10.368-16.311 13.823-22.596 5.808-10.506 10.464-19.525 19.295-23.027 11.52-4.509 23.951-5.997 33.935 2.639 4.463 3.885 3.024 14.2 1.776 21.012l17.183 9.595c10.751 6.045 11.903 20.341 9.359 31.662"/><path fill="#fff" d="M205.894 222.388c3.887.144 7.631.479 11.423.911a177 177 0 0 0-11.423-.911M339.182 319.198c.288 1.631-4.895 5.613-6.623 4.798-9.84-4.702-22.415-8.779-19.823-15.832.624-1.679 6-3.933 7.871-2.83l14.064 7.964c2.112 1.199 4.271 4.317 4.511 5.9M368.941 355.131c-4.032.48-7.968.767-12.095.911z"/><path fill="#363430" d="m252.259 307.925-20.255 12.233c-1.776 1.055-8.16.048-9.84-.959-2.064-1.2-3.312-8.108-1.296-9.499 8.544-5.949 25.727-19.238 33.022-12.617 2.016 1.775.816 9.355-1.631 10.842M208.773 298.426c0 2.111-3.167 7.004-4.943 7.963-10.704 5.613-17.135-34.109-4.08-38.858 2.208-.816 8.351 2.59 8.399 5.277zM184.247 313.921c.336 2.303-5.856 8.06-7.92 6.909-11.759-6.861-26.783-12.713-23.711-22.884.768-2.447 7.152-5.709 9.408-4.126l16.847 11.562c2.496 1.727 5.04 6.189 5.376 8.539M339.182 319.198c.288 1.631-4.895 5.613-6.623 4.798-9.84-4.702-22.415-8.779-19.823-15.832.624-1.679 6-3.933 7.871-2.83l14.064 7.964c2.112 1.199 4.271 4.317 4.511 5.9M396.06 315.072l-11.183 5.613-5.76 2.879c-1.44.719-6.816 0-8.208-.672-.048-.048-.096-.048-.144-.096-1.632-1.055-2.592-5.565-.96-6.476.336-.192.624-.384 1.008-.576 6.72-3.934 18.335-11.082 24.815-9.067.672.192 1.248.528 1.824.912 1.68 1.247.624 6.476-1.392 7.483M359.725 308.5c0 1.248-1.872 3.742-3.312 4.942-.288.287-.576.479-.816.575-8.975 3.886-14.351-23.555-3.456-26.865 1.872-.576 7.008 1.775 7.056 3.646l.192 6.285z"/></svg>