<svg xmlns="http://www.w3.org/2000/svg" width="548" height="534" fill="none"><path fill="#363430" d="M538.205 406.047c-26.025-31.245-66.646-40.542-101.889-53.05-9.123-13.131-18.582-29.185-34.859-36.756 22.279-14.425 35.099-34.792 36.684-57.364 3.313-46.868-31.979-77.203-77.497-83.816l-.192-106.675c17.862-5.751 28.089-20.32 26.456-37.476C385.228 13.131 371.207.336 353.538 0c-17.238-.383-32.171 11.502-34.86 29.041-2.544 16.581 6.194 33.498 25.449 39.057v107.49c-29.338.911-55.506 12.268-71.976 36.038-15.845 22.907-15.941 51.804-3.745 76.388l-87.916-31.101-112.164 49.072-1.056 63.066c-21.127 7.955-38.413 17.3-53.105 31.677-20.503 20.079-18.342 49.408 3.84 68.194 25.065 21.133 55.315 34.024 88.445 42.986 105.682 28.514 216.79 29.185 324.584 3.211 37.741-9.106 85.132-27.604 107.939-56.501 12.436-15.67 11.908-37.379-.768-52.571m-113.749-28.034c1.873 23.098-8.979 47.012-30.826 59.232-28.473 15.862-63.668 15.67-92.093 0-22.855-12.556-34.427-36.948-31.114-62.108 3.073-23.05 20.55-45.047 46.767-49.36 7.49-1.246 19.926 1.965 26.841 3.163-.481 6.47.48 17.012 5.281 17.635 8.691 1.151 10.372-9.009 9.027-17.683l24.392-3.69c24.104 9.057 39.757 28.754 41.725 52.811m-89.5-343.604c0-9.777 7.922-17.684 17.717-17.684s17.67 7.907 17.67 17.684c0 9.776-7.923 17.635-17.67 17.635s-17.717-7.907-17.717-17.635m8.69 158.096c-.144 5.846.913 14.616 5.09 16.725 2.209 1.102 9.123.575 9.555-1.773l2.833-14.713c33.467 2.828 64.149 30.192 60.499 66.229-1.584 15.479-10.947 32.06-26.648 41.693-27.417 16.773-62.084 15.527-90.125.096-16.085-8.866-26.12-24.633-28.185-39.776-5.522-39.728 28.425-69.488 66.981-68.481m-60.355 128.097c-32.362 31.916-40.429 73.129-14.405 109.838l-71.639 32.875.144-106.82c29.722-12.268 54.45-26.98 85.9-35.893M181.21 274.74l88.397 31.82-80.666 35.942-91.134-31.677zm-96.943 49.216 97.519 32.971-.48 107.729-97.135-33.354zm439.581 127.378c-27.224 29.376-79.945 45.143-119.558 53.29-107.027 21.996-238.637 17.923-340.237-25.687-14.597-6.278-28.522-15.431-39.71-27.124-10.226-10.687-10.61-25.447-1.872-35.654 11.908-13.898 27.705-23.434 44.847-28.754l1.152 56.166 121.095 41.644 90.317-42.172c33.035 24.728 77.977 29.904 115.957 11.598 31.786-15.288 48.016-46.869 44.222-82.283 28.281 5.175 119.319 40.638 83.787 78.976"/><path fill="#363430" d="M308.835 366.607c-17.381 22.38 4.466 30.622-9.219 39.871-2.4 1.63-8.882-1.437-9.699-4.313-8.162-27.507 6.098-51.564 15.557-47.922 3.313 1.294 5.618 9.393 3.361 12.364M325.448 223.175c-1.824-5.08-10.179-7.14-14.26-3.786-15.989 13.083-21.175 34.313-10.996 52.715 1.537 2.779 7.347 6.613 10.276 6.182 14.212-2.157 23.575-30.766 14.98-55.111m-13.636 38.051c-6.146-8.099-4.513-17.54 2.977-24.92 1.681 8.195 1.2 16.054-2.977 24.92M142.078 395.025c0 5.751-4.658 10.399-10.372 10.399s-10.419-4.648-10.419-10.399 4.658-10.351 10.419-10.351 10.372 4.648 10.372 10.351M193.166 306.991c0 5.128-4.177 9.249-9.315 9.249s-9.315-4.121-9.315-9.249c0-5.127 4.177-9.297 9.315-9.297s9.315 4.122 9.315 9.297"/></svg>