<svg xmlns="http://www.w3.org/2000/svg" width="706" height="402" fill="none"><path fill="#363430" d="M705.182 133.664c-2.208-16.672-11.519-30.182-22.749-37.224-14.495-9.103-31.389-6.324-46.219-3.929-15.694-42.782-85.382-66.257-127.33-75.551-97.717-21.703-198.457-22.422-296.702-3.115-48.331 9.486-122.242 32.051-142.208 79.05C53.56 89.11 36.33 87.72 21.98 98.115c-34.077 24.673-24.238 75.84.431 108.082 18.526 24.242 44.491 38.71 73.96 47.573 23.757 47.956 59.993 85.948 107.892 111.483 138.752 73.923 333.994 35.931 406.754-111.148 54.378-16.001 101.892-61.993 94.165-120.442m-673.46 56.485c-17.614-25.631-23.037-69.755 4.464-81.157 11.47-4.695 25.629-3.45 34.508 4.263-2.4 40.819 1.584 77.085 15.646 118.191-22.413-6.468-41.371-22.038-54.618-41.297m55.674-87.577c3.6-33.249 61.769-54.664 90.134-62.808 105.156-30.135 245.396-30.23 350.36-.24 28.125 8.001 90.902 30.47 91.766 65.204.288 12.121-9.935 21.511-18.862 27.403-39.404-37.08-116.771-52.22-169.421-57.346-2.88-.287-8.015 5.222-8.207 7.713-.288 3.258 3.648 8.193 7.679 8.72 45.595 5.844 122.002 18.013 155.742 50.926-110.051 61.946-360.583 59.503-467.514-.575 40.651-32.434 103.716-43.74 153.294-49.872 4.752-.575 9.359-4.6 9.215-9.247-.144-3.64-6.095-8.527-10.751-7.857-49.338 7.043-128.817 20.84-163.997 57.874-10.367-5.51-20.878-16.433-19.438-29.895m387.316 257.556c-82.502 35.548-178.06 33.44-258.355-7.618C135.247 310.974 86.004 229.29 87.3 138.934c40.028 33.68 90.758 45.801 140.72 55.622 107.316 17.774 304.334 17.487 392.548-56.101.048 98.117-55.866 182.915-145.856 221.673m145.856-128.251c13.678-37.992 18.142-77.372 16.222-118.334 7.487-8.144 22.125-8.911 32.348-4.791 10.127 4.024 17.518 14.037 19.582 26.398 7.055 41.872-28.989 84.462-68.152 96.727"/><path fill="#363430" d="M402.769 71.096c-7.824-.288-16.319.958-23.71 2.635-2.591-10.588-15.022-37.848-25.389-38.423-11.759-.67-24.429 32.53-27.165 43.07-8.255-1.916-22.557-4.024-26.733 3.641-4.079 14.133 4.464 28.074 10.511 40.435.432.335.912.623 1.344 1.006 2.352 2.108 4.463 4.408 6.671 6.707.816.862 1.68 1.725 2.544 2.635.288.24.384.383.576.527 1.92 1.294 5.615 3.258 6.191 3.593 2.448 1.437 4.944 2.779 7.535 3.977 5.28 2.443 8.543 6.946 10.223 12.12l.72.144c.432 4.504.96 9.486 2.592 12.025 1.392 2.204 10.607 1.964 11.326-.575l1.344-4.838a22.8 22.8 0 0 1 1.968-6.899l.384-1.246s.144 0 .24.048c3.12-5.893 8.591-10.636 15.022-12.504 1.392-.431 5.232-1.006 6.192-2.108-.96.383-1.68.719-2.112.862.192-.096.528-.239.912-.431.768-.335 1.488-.718 2.255-1.102.288-.143.528-.335.816-.479a.8.8 0 0 1 .192-.239c1.152-1.246 2.544-2.252 3.984-3.21 15.502-17.247 17.806-39.908 11.567-61.371m-41.084 63.479-.24-26.398c-.048-2.539-5.519-7.33-7.967-7.042-2.496.239-6.239 5.222-6.287 7.761l-.432 26.493c-17.134-7.809-26.685-23.092-31.389-42.686 16.319 1.629 9.119 5.461 24.094 7.713 11.47 1.725-6.192-28.458 13.438-43.693 20.494 19.451.048 46.52 19.438 37.56l16.414-7.569c2.352 21.703-8.399 38.279-27.069 47.861M238.435 143.965c-8.783 2.06-29.036 4.599-29.516-4.935-.096-1.964 1.775-7.33 3.551-8.288 7.535-4.12 21.406-6.659 29.037 1.581 1.824 1.964-.336 11.019-3.072 11.642M494.39 143.007c-8.015 4.216-18.574 4.264-26.013-.575-2.544-1.629-1.824-10.013.575-11.929 5.952-4.695 18.718-5.031 25.534.67 2.207 1.821 2.207 10.636-.096 11.834"/></svg>