<svg xmlns="http://www.w3.org/2000/svg" width="22" height="5" fill="none"><path fill="#363430" d="M2.073 4.84a1.87 1.87 0 0 1-1.486-.686Q0 3.468 0 2.42 0 1.37.587.686A1.87 1.87 0 0 1 2.073 0q.9 0 1.486.686.588.685.588 1.734t-.588 1.734a1.87 1.87 0 0 1-1.486.686m8.775 0q-.898 0-1.486-.686-.587-.686-.587-1.734 0-1.05.587-1.734A1.87 1.87 0 0 1 10.848 0q.898 0 1.486.686.588.685.588 1.734t-.588 1.734a1.87 1.87 0 0 1-1.486.686m8.774 0a1.87 1.87 0 0 1-1.485-.686q-.588-.686-.588-1.734 0-1.05.588-1.734A1.87 1.87 0 0 1 19.622 0q.9 0 1.487.686.587.685.587 1.734t-.587 1.734a1.87 1.87 0 0 1-1.487.686"/></svg>