<svg xmlns="http://www.w3.org/2000/svg" width="35" height="35" fill="none"><path fill="#363430" fill-rule="evenodd" d="M4.375 6.563a2.19 2.19 0 0 1 2.188-2.188h21.875a2.187 2.187 0 0 1 2.187 2.188v3.042c0 .773-.308 1.515-.855 2.062l-7.895 7.895V30.39a1.604 1.604 0 0 1-2.322 1.435l-5.42-2.71a1.82 1.82 0 0 1-1.008-1.63v-7.922L5.23 11.667a2.92 2.92 0 0 1-.855-2.062zm2.917.729v2.313l8.108 8.108a2.19 2.19 0 0 1 .642 1.547v7.547l2.916 1.458V19.26c0-.58.23-1.137.642-1.546l8.108-8.11V7.291z" clip-rule="evenodd"/></svg>