<svg xmlns="http://www.w3.org/2000/svg" width="25" height="25" fill="none"><path fill="#fff" d="M16.67 10.417a1.042 1.042 0 1 0 0 2.083 1.042 1.042 0 0 0 0-2.083"/><path fill="#fff" d="M0 16.249v2.498c1.611 0 4.26-.724 5.534-3.098 1.599 1.986 4.435 4.347 8.845 4.347 7.432 0 10.393-6.72 10.518-7.008a1.23 1.23 0 0 0 0-.987c-.125-.287-3.086-7.008-10.518-7.008-4.41 0-7.246 2.361-8.845 4.347C4.26 6.954 1.611 6.242.012 6.242v2.499c.625 0 3.748.225 3.748 3.748 0 3.522-3.123 3.735-3.76 3.747zm14.379-8.745c4.784 0 7.233 3.635 7.97 4.997-.75 1.362-3.186 4.997-7.97 4.997-4.785 0-7.233-3.648-7.97-4.997.749-1.362 3.185-4.997 7.97-4.997"/></svg>