<svg xmlns="http://www.w3.org/2000/svg" width="35" height="35" fill="none"><path fill="#f1a10e" fill-rule="evenodd" d="M15.212 3.393a5.5 5.5 0 0 1 4.576 0c5.177 2.37 9.034 5.76 10.891 7.59 1.002.986 1.537 2.3 1.612 3.657.092 1.672.209 4.383.209 7.44 0 2.157-.058 4.141-.125 5.71a4.763 4.763 0 0 1-4.618 4.569c-2.318.08-5.764.159-10.257.159s-7.939-.08-10.257-.16a4.763 4.763 0 0 1-4.618-4.569 136 136 0 0 1-.125-5.71c0-3.056.117-5.767.209-7.439.075-1.356.61-2.67 1.612-3.657 1.857-1.83 5.714-5.22 10.891-7.59m-3.045 22.125a1.333 1.333 0 1 0 0 2.666h10.666a1.333 1.333 0 1 0 0-2.666z" clip-rule="evenodd"/></svg>