<svg xmlns="http://www.w3.org/2000/svg" width="35" height="35" fill="none"><path fill="#363430" fill-rule="evenodd" d="M19.866 3.348a5.82 5.82 0 0 0-4.731 0C10.26 5.513 6.576 8.353 4.669 9.996c-1.228 1.059-1.89 2.562-1.971 4.115q-.192 3.651-.198 7.307c0 2.25.064 4.421.135 6.123a5.015 5.015 0 0 0 4.853 4.823c2.27.078 5.635.155 10.012.155a296 296 0 0 0 10.012-.155 5.015 5.015 0 0 0 4.854-4.823c.07-1.701.134-3.872.134-6.124 0-2.927-.108-5.6-.197-7.306-.082-1.553-.743-3.057-1.972-4.115-1.907-1.644-5.592-4.482-10.465-6.648M16.194 5.73a3.22 3.22 0 0 1 2.612 0c4.564 2.029 8.033 4.7 9.823 6.242.64.55 1.02 1.363 1.068 2.274.088 1.68.195 4.304.195 7.17 0 2.205-.063 4.339-.132 6.016a2.407 2.407 0 0 1-2.337 2.324 292 292 0 0 1-9.923.154c-4.347 0-7.68-.077-9.923-.154a2.406 2.406 0 0 1-2.336-2.323q-.127-3.007-.132-6.017c0-2.867.106-5.49.194-7.17.048-.91.429-1.723 1.069-2.274 1.79-1.543 5.258-4.213 9.822-6.242m-3.911 18.63a1.63 1.63 0 1 0 0 3.26h10.435a1.63 1.63 0 1 0 0-3.26z" clip-rule="evenodd"/></svg>