<svg xmlns="http://www.w3.org/2000/svg" width="35" height="35" fill="none"><path fill="#f1a10e" d="M18.305 2.85a1.213 1.213 0 0 0-1.612 0 10.76 10.76 0 0 0-3.622 8.18.94.94 0 0 0 .463.8 14 14 0 0 1 3.266 2.676.94.94 0 0 0 1.398 0 14 14 0 0 1 3.267-2.672.94.94 0 0 0 .46-.8 10.76 10.76 0 0 0-3.62-8.183m-13.94 18.8a1.247 1.247 0 0 1 1.14-1.354A11.96 11.96 0 0 1 17.5 27.514a11.96 11.96 0 0 1 11.994-7.219 1.245 1.245 0 0 1 1.14 1.354 11.98 11.98 0 0 1-11.93 10.894h-.875a1.3 1.3 0 0 1-.33-.045q-.165.043-.334.045h-.874A11.98 11.98 0 0 1 4.363 21.65m13.137-2.6a11.96 11.96 0 0 0-11.995-7.218 1.247 1.247 0 0 0-1.14 1.354c.148 1.65.638 3.252 1.439 4.702a.94.94 0 0 0 .816.485 13.84 13.84 0 0 1 10.096 4.503.94.94 0 0 0 .784.3.94.94 0 0 0 .783-.3 13.84 13.84 0 0 1 10.095-4.503.94.94 0 0 0 .817-.487c.8-1.45 1.29-3.05 1.439-4.7a1.247 1.247 0 0 0-1.14-1.354A11.96 11.96 0 0 0 17.5 19.05"/></svg>