<svg xmlns="http://www.w3.org/2000/svg" width="35" height="35" fill="none"><path fill="#363430" d="M16.481 1.293a12.06 12.06 0 0 0-3.953 11.314c-2.538-1.461-5.337-1.901-8.553-1.635a1.6 1.6 0 0 0-1.458 1.735c.262 2.879 1.588 5.734 3.436 7.966a15 15 0 0 0-2.083.128 1.57 1.57 0 0 0-1.356 1.675 12.67 12.67 0 0 0 12.631 11.697h4.705a12.67 12.67 0 0 0 12.633-11.697 1.567 1.567 0 0 0-1.357-1.675 15 15 0 0 0-2.059-.128c1.848-2.233 3.174-5.087 3.436-7.966a1.6 1.6 0 0 0-1.46-1.735c-3.215-.266-6.029.174-8.576 1.635a12.06 12.06 0 0 0-3.951-11.314 1.55 1.55 0 0 0-2.035 0M17.5 17.04a9.574 9.574 0 0 1 0-13.265 9.574 9.574 0 0 1 0 13.263m0 9.352a15 15 0 0 0-7.062-4.967 2 2 0 0 0-.172-.142c-2.452-1.668-4.537-4.744-5.126-7.873 3.118-.103 5.564.646 7.798 2.537 1.71 1.45 2.468 3.216 3.03 4.529.147.34.279.65.412.914a1.25 1.25 0 0 0 2.237 0q.197-.4.412-.914c.564-1.313 1.321-3.08 3.03-4.529 2.234-1.89 4.7-2.64 7.823-2.536-.59 3.129-2.673 6.204-5.125 7.872q-.085.06-.16.129a15 15 0 0 0-7.097 4.98m1.072 2.847c2.323-3.886 6.675-6.305 11.307-6.043a10.17 10.17 0 0 1-10.028 8.478h-4.703c-5.004 0-9.214-3.63-10.026-8.476 4.63-.264 8.982 2.153 11.305 6.041a1.25 1.25 0 0 0 2.147 0"/></svg>