<svg xmlns="http://www.w3.org/2000/svg" width="30" height="30" fill="none"><path fill="#363430" fill-rule="evenodd" d="M25 5H5a1.25 1.25 0 0 0-1.25 1.25v17.5A1.25 1.25 0 0 0 5 25h20a1.25 1.25 0 0 0 1.25-1.25V6.25A1.25 1.25 0 0 0 25 5M5 2.5a3.75 3.75 0 0 0-3.75 3.75v17.5A3.75 3.75 0 0 0 5 27.5h20a3.75 3.75 0 0 0 3.75-3.75V6.25A3.75 3.75 0 0 0 25 2.5zm2.5 6.25H10v2.5H7.5zm6.25 0a1.25 1.25 0 0 0 0 2.5h7.5a1.25 1.25 0 0 0 0-2.5zm-3.75 5H7.5v2.5H10zM12.5 15a1.25 1.25 0 0 1 1.25-1.25h7.5a1.25 1.25 0 0 1 0 2.5h-7.5A1.25 1.25 0 0 1 12.5 15M10 18.75H7.5v2.5H10zM12.5 20a1.25 1.25 0 0 1 1.25-1.25h7.5a1.25 1.25 0 0 1 0 2.5h-7.5A1.25 1.25 0 0 1 12.5 20" clip-rule="evenodd"/></svg>