<svg xmlns="http://www.w3.org/2000/svg" width="30" height="30" fill="none"><g clip-path="url(#a)"><path stroke="#363430" stroke-linecap="round" stroke-linejoin="round" stroke-width="2.857" d="M20.714 3.572h4.285a2.857 2.857 0 0 1 2.857 2.857v1.429m-7.142 18.57h4.285a2.857 2.857 0 0 0 2.857-2.857v-1.429M20.716 15h7.142M25 17.857 27.858 15 25 12.143M4.179 25.611l8.571 2.571a2.857 2.857 0 0 0 3.678-2.737V4.555a2.857 2.857 0 0 0-3.678-2.737L4.18 4.389a2.86 2.86 0 0 0-2.036 2.737v15.748a2.86 2.86 0 0 0 2.035 2.737"/></g><defs><clipPath id="a"><path fill="#fff" d="M0 0h30v30H0z"/></clipPath></defs></svg>