<svg xmlns="http://www.w3.org/2000/svg" width="25" height="25" fill="none"><path fill="#fff" d="M17.14 2.5c1.037 0 2.024.274 2.862.824 1.424.925 2.3 2.337 2.5 3.975a5.46 5.46 0 0 1-1.563 4.336c-.875.863-1.987 1.412-3.212 1.537-2.387.25-4.487 1.2-6.049 2.787a1.01 1.01 0 0 1-1.412 0l-1.237-1.237a.93.93 0 0 1-.275-.662c0-.313.137-.588.4-.85 1.512-1.525 2.437-3.55 2.662-5.874.162-1.662 1.05-3.087 2.5-4.024.824-.538 1.799-.812 2.824-.812m0-2.5c-1.463 0-2.925.4-4.187 1.212-2.2 1.412-3.412 3.612-3.624 5.887-.163 1.65-.788 3.187-1.938 4.336l-.037.038c-1.45 1.45-1.45 3.662-.087 5.011l1.237 1.238a3.46 3.46 0 0 0 2.462 1.024c.887 0 1.787-.337 2.474-1.024 1.213-1.213 2.812-1.875 4.55-2.063a7.9 7.9 0 0 0 4.711-2.25 7.836 7.836 0 0 0-1.337-12.16A7.63 7.63 0 0 0 17.14 0M5.33 22.32c.337.7.224 1.55-.363 2.125a1.862 1.862 0 0 1-3.187-1.224 1.862 1.862 0 0 1-1.225-3.187 1.86 1.86 0 0 1 2.125-.363l3.1-3.037c.174.238.374.513.6.738l1.236 1.237c.263.25.513.462.838.65z"/></svg>