<svg xmlns="http://www.w3.org/2000/svg" width="45" height="45" fill="none"><path fill="#363430" d="M35.625 3.75H9.375A1.88 1.88 0 0 0 7.5 5.625v7.5H3.75v3.75H7.5v3.75H3.75v3.75H7.5v3.75H3.75v3.75H7.5v7.5a1.88 1.88 0 0 0 1.875 1.875h26.25a3.76 3.76 0 0 0 3.75-3.75v-30a3.76 3.76 0 0 0-3.75-3.75m0 33.75H11.25v-30h24.375z"/><path fill="#f1a10e" d="m20.093 26.402 11.918-11.918a1.35 1.35 0 0 1 .984-.421q.564 0 .985.421.422.423.422 1.003t-.422 1.001L21.078 29.426a1.35 1.35 0 0 1-.985.422 1.35 1.35 0 0 1-.984-.422l-6.047-6.047a1.3 1.3 0 0 1-.405-1.001q.017-.58.44-1.003a1.37 1.37 0 0 1 1.003-.422q.58.002 1.001.422z"/></svg>