<svg xmlns="http://www.w3.org/2000/svg" width="30" height="30" fill="none"><path fill="#363430" d="M23.75 5h-2.5V3.75a1.25 1.25 0 0 0-2.5 0V5h-7.5V3.75a1.25 1.25 0 0 0-2.5 0V5h-2.5A3.75 3.75 0 0 0 2.5 8.75v15a3.75 3.75 0 0 0 3.75 3.75h17.5a3.75 3.75 0 0 0 3.75-3.75v-15A3.75 3.75 0 0 0 23.75 5M25 23.75A1.25 1.25 0 0 1 23.75 25H6.25A1.25 1.25 0 0 1 5 23.75V15h20zm0-11.25H5V8.75A1.25 1.25 0 0 1 6.25 7.5h2.5v1.25a1.25 1.25 0 0 0 2.5 0V7.5h7.5v1.25a1.25 1.25 0 0 0 2.5 0V7.5h2.5A1.25 1.25 0 0 1 25 8.75z"/></svg>