<svg xmlns="http://www.w3.org/2000/svg" width="35" height="35" fill="none"><path fill="#363430" fill-rule="evenodd" d="M7.291 13.125a10.208 10.208 0 0 1 20.417 0v5.49l2.657 5.313a1.604 1.604 0 0 1-1.435 2.322h-5.78a5.836 5.836 0 0 1-11.3 0H6.07a1.604 1.604 0 0 1-1.436-2.322l2.657-5.314zm7.683 13.125a2.917 2.917 0 0 0 5.052 0zM17.5 5.833a7.29 7.29 0 0 0-7.292 7.292v5.49c0 .452-.105.898-.308 1.303l-1.706 3.415h18.613L25.1 19.918a2.9 2.9 0 0 1-.31-1.304v-5.489A7.29 7.29 0 0 0 17.5 5.833" clip-rule="evenodd"/><circle cx="24" cy="8" r="5" fill="#f1a10e"/></svg>