<svg xmlns="http://www.w3.org/2000/svg" width="35" height="35" fill="none"><path stroke="#363430" stroke-linecap="round" stroke-linejoin="round" stroke-width="2.717" d="m30.786 12.604-.583-.324-.18-.102c-.433-.26-.799-.62-1.065-1.05-.03-.043-.055-.09-.105-.179a3.2 3.2 0 0 1-.478-1.84l.01-.677c.019-1.082.028-1.626-.124-2.113a3.2 3.2 0 0 0-.664-1.17c-.34-.383-.813-.656-1.76-1.2l-.786-.454c-.942-.543-1.414-.815-1.915-.918a3.2 3.2 0 0 0-1.342.011c-.498.111-.964.391-1.895.948l-.005.003-.563.336c-.089.054-.135.08-.18.105a3.16 3.16 0 0 1-1.443.398c-.05.003-.103.003-.207.003l-.206-.001a3.2 3.2 0 0 1-1.448-.401c-.045-.024-.088-.051-.177-.105l-.568-.34c-.937-.564-1.407-.844-1.908-.957a3.2 3.2 0 0 0-1.346-.01c-.503.105-.974.379-1.917.926l-.005.002-.776.45-.008.007c-.936.54-1.405.814-1.743 1.195-.3.337-.525.736-.66 1.167-.151.489-.143 1.033-.124 2.121l.011.675c0 .103.005.154.003.204a3.2 3.2 0 0 1-.479 1.634c-.052.089-.076.133-.103.175a3.2 3.2 0 0 1-1.074 1.056l-.178.1-.575.319c-.957.53-1.436.795-1.783 1.174-.309.334-.542.73-.684 1.162-.16.488-.16 1.034-.158 2.128l.003.896c.002 1.087.005 1.63.166 2.115.142.429.373.822.68 1.155.346.375.82.64 1.77 1.168l.57.316c.097.055.146.08.192.109.499.299.906.728 1.178 1.242l.106.191c.269.508.395 1.078.366 1.652l-.011.648c-.02 1.091-.027 1.638.126 2.127.135.433.36.832.663 1.17.34.383.815.655 1.76 1.2l.786.454c.944.543 1.415.815 1.916.918.443.092.9.088 1.341-.011.5-.111.966-.391 1.9-.951l.563-.338.18-.105a3.2 3.2 0 0 1 1.443-.398l.207-.001h.207a3.2 3.2 0 0 1 1.448.4l.146.088.598.36c.939.563 1.407.843 1.908.955.443.1.902.104 1.346.012.501-.105.976-.38 1.919-.927l.788-.457c.935-.544 1.405-.816 1.742-1.197a3.2 3.2 0 0 0 .66-1.167c.151-.486.143-1.025.124-2.097l-.012-.7v-.203a3.2 3.2 0 0 1 .477-1.635l.103-.175a3.2 3.2 0 0 1 1.074-1.057l.175-.097.003-.002.575-.318c.958-.531 1.437-.795 1.785-1.174a3.2 3.2 0 0 0 .683-1.162c.159-.485.159-1.029.156-2.11l-.004-.914c-.001-1.087-.003-1.631-.163-2.116a3.2 3.2 0 0 0-.681-1.154c-.346-.376-.82-.64-1.768-1.166z"/><path stroke="#363430" stroke-linecap="round" stroke-linejoin="round" stroke-width="2.717" d="M11.136 17.5a6.365 6.365 0 1 0 12.729 0 6.365 6.365 0 0 0-12.73 0"/></svg>