<svg xmlns="http://www.w3.org/2000/svg" width="35" height="35" fill="none"><path fill="#363430" d="M10.303 22.726a1.215 1.215 0 0 0 2.341-.648zM3.332 5.66a1.214 1.214 0 1 0-.651 2.34zm27.504 17.81a1.214 1.214 0 1 0-.612-2.35zM14.66 26.44c.502 1.813-.599 3.729-2.548 4.235l.61 2.35c3.201-.83 5.157-4.051 4.28-7.233zm-2.548 4.235c-1.963.51-3.931-.63-4.436-2.459l-2.342.648c.875 3.165 4.2 4.99 7.388 4.16zm-4.436-2.459c-.502-1.813.599-3.729 2.548-4.235l-.61-2.348c-3.201.83-5.159 4.05-4.28 7.23zm2.548-4.235c1.962-.51 3.931.63 4.436 2.459l2.341-.648c-.874-3.165-4.2-4.99-7.387-4.16zm2.42-1.903L9.16 9.466l-2.341.647 3.484 12.613zM6.09 6.425l-2.758-.764-.651 2.34 2.76.765zm3.07 3.04a4.39 4.39 0 0 0-3.07-3.04l-.646 2.341c.689.191 1.2.714 1.375 1.347zm6.978 17.827 14.698-3.821-.61-2.35-14.7 3.821z"/><path stroke="#363430" stroke-width="2.711" d="M13.637 12.146c-.786-2.842-1.177-4.263-.51-5.382.665-1.12 2.13-1.501 5.06-2.264l3.11-.806c2.93-.76 4.395-1.143 5.55-.497 1.154.648 1.547 2.068 2.331 4.91l.834 3.015c.785 2.842 1.178 4.263.511 5.384-.667 1.118-2.132 1.5-5.062 2.261l-3.109.808c-2.93.761-4.396 1.142-5.55.496-1.154-.648-1.546-2.068-2.331-4.91z"/></svg>