<svg xmlns="http://www.w3.org/2000/svg" width="35" height="35" fill="none"><path fill="#f1a10e" d="m13.543 12.05.859 3.105c.808 2.925 1.211 4.389 2.4 5.054 1.188.666 2.696.273 5.713-.51l3.2-.834c3.017-.783 4.525-1.175 5.212-2.326.686-1.154.283-2.617-.527-5.542l-.857-3.103c-.808-2.927-1.213-4.39-2.4-5.055-1.19-.667-2.698-.274-5.715.511l-3.2.83c-3.016.784-4.525 1.177-5.21 2.33-.686 1.152-.283 2.615.525 5.54"/><path fill="#f1a10e" d="M1.4 6.245a1.25 1.25 0 0 1 1.54-.87l2.837.787a4.52 4.52 0 0 1 3.16 3.13l3.585 12.977.264.912a4.93 4.93 0 0 1 2.536 2.111l.517-.16 14.783-3.841a1.251 1.251 0 0 1 .63 2.42l-14.728 3.826-.55.17c-.01 2.117-1.472 4.053-3.683 4.627-2.65.69-5.375-.837-6.085-3.407s.863-5.215 3.513-5.903q.198-.05.395-.087L6.527 9.957a2.02 2.02 0 0 0-1.416-1.385l-2.84-.788a1.25 1.25 0 0 1-.872-1.539"/></svg>