<svg xmlns="http://www.w3.org/2000/svg" width="25" height="25" fill="none"><path fill="#fff" d="M5.635 4.434a.694.694 0 0 1 .93.314l.55 1.114 1.12-1.201a.694.694 0 1 1 1.015.948L7.772 7.194l.558 1.129.924-.842a.694.694 0 1 1 .935 1.029L8.97 9.62l.733 1.485a.695.695 0 0 1-1.245.616l-.76-1.54-1.364.276a.695.695 0 0 1-.275-1.363L7.06 8.89 6.51 7.773l-2.11.318a.695.695 0 0 1-.207-1.375l1.67-.252-.542-1.099a.694.694 0 0 1 .315-.931m15.693 6.154a.695.695 0 0 1 .762.62 3.53 3.53 0 0 1-1.546 3.321.696.696 0 0 1-.778-1.152 2.14 2.14 0 0 0 .943-2.025.694.694 0 0 1 .619-.764"/><path fill="#fff" fill-rule="evenodd" d="M2.854 24.996c2.058-.104 3.343-.676 4.142-1.522.279.399.764.632 1.29.55 2.759-.43 8.908-1.564 15.819-3.954a1.282 1.282 0 0 0 0-2.444 89 89 0 0 0-2.317-.764c1.378-.727 2.436-1.947 2.85-3.496.933-3.489-1.518-6.525-4.699-5.559-.224-1.601.296-3.076 1.659-3.864l-.695-1.204c-1.686.974-2.394 2.641-2.4 4.349-1.195-.915-2.644-.95-3.875-.306a2.6 2.6 0 0 0-.087-.61c-.212-.792-.778-1.358-1.556-1.684-.16-.733-.527-1.623-1.222-2.287-.806-.768-1.963-1.15-3.47-.78A3.57 3.57 0 0 0 6.85.263c-.927-.4-2.091-.39-3.405.365-1.373.643-2.035 1.588-2.217 2.579a3.6 3.6 0 0 0 .16 1.816C.225 6.043-.126 7.21.04 8.309c.146.95.664 1.763 1.172 2.314-.18.825-.04 1.612.487 2.24q.204.243.465.433a1 1 0 0 0-.004.085c.016 1.29.09 2.31.354 3.103-.852.325-1.656.987-2.39 1.986a.64.64 0 0 0 0 .757c.727.99 1.525 1.65 2.37 1.978-.225.77-.313 1.782-.333 3.11a.666.666 0 0 0 .693.681m5.424-6.148c0 .715-.028 1.43-.142 2.108v1.684a81 81 0 0 0 2.579-.45v-2.571h1.389v2.295a96 96 0 0 0 7.029-1.732v-1.333h1.388v.923a92 92 0 0 0 2.861-.923 88 88 0 0 0-4.027-1.27l-.077.006-2.286-.658q-.54-.141-1.062-.27v2.962h-1.39V16.32a90 90 0 0 0-6.404-1.264v1.685c.113.677.142 1.392.142 2.107m-1.53 1.986v-3.972c-.098-.527-.254-.974-.493-1.342-.365-.562-1.067-1.146-2.686-1.36.036.848.115 1.443.262 1.883l.422 1.265-1.244.475c-.433.165-.912.494-1.41 1.065.493.565.968.894 1.397 1.06l1.189.463-.359 1.225c-.132.451-.214 1.068-.253 1.94 1.617-.215 2.317-.798 2.682-1.36.239-.367.395-.814.493-1.341m.657-6.993c-.795-.616-1.743-1.097-2.903-1.197-.94-.082-1.48-.368-1.739-.676-.23-.273-.337-.685-.116-1.324l.151-.437-.344-.309c-.44-.394-.93-1.071-1.04-1.799-.099-.65.081-1.47 1.232-2.303l.497-.359-.295-.538c-.187-.343-.354-.896-.254-1.442.092-.497.425-1.102 1.463-1.581l.03-.014.029-.017c.988-.576 1.7-.515 2.187-.306.526.226.893.674 1.058 1.007l.272.549.577-.2c1.344-.465 2.119-.142 2.595.312.533.509.807 1.297.878 1.884l.055.458.444.128c.65.185.926.51 1.019.854.104.388.027.995-.445 1.811a5.1 5.1 0 0 0-.654 2.012 5.5 5.5 0 0 0 .322 3.196c.06.246.125.485.185.71l.024.09q.018.065.032.129a87 87 0 0 0-4.378-.807 1.32 1.32 0 0 0-.882.17M19.48 16.17a97 97 0 0 0-4.185-1.099 4.96 4.96 0 0 1-1.55-1.965c-.208-.865-.351-1.709-.274-2.517a3 3 0 0 1 .049-.204c.384-1.435 1.315-2.287 2.201-2.553.825-.248 1.781-.051 2.555 1.002l.658.896 1.018-.446c1.196-.525 2.122-.217 2.713.41.635.676 1.015 1.879.632 3.314-.443 1.651-1.945 2.896-3.817 3.162" clip-rule="evenodd"/></svg>