<svg xmlns="http://www.w3.org/2000/svg" width="70" height="69" fill="none"><path fill="#f1a10e" d="M28.446 13.653C22.216 2.07 10.102 51.266 18.65 56.354c8.038 4.782 15.019-9.154 17.63-13.961.077 1.803.917 5.012 2.064 6.456 4.56 5.754 15.185-9.742 16.522-17.4.917 5.05-4.063 9.627 1.121 14.178l5.911-32.524c9.987 10.599 10.153 26.605 3.605 38.188-7.44 13.169-21.21 18.13-36.535 16.403C14.408 66.044 3.707 54.398.853 41.715-2.599 26.297 4.663 12.49 16.331 5.33c13.045-8.004 28.816-6.776 40.714 2.224-4.472 13.169-5.962 26.785-16.153 37.383-1.567-7.645 9.86-34.8 3.172-35.12-8.242-.396-8.79 30.224-20.14 39.454-2.064-9.908 7.63-29.865 4.535-35.618z"/></svg>